<svg xmlns="http://www.w3.org/2000/svg" width="366.638" height="260" viewBox="0 0 366.638 260">
  <path id="cogs-solid" d="M293.388,97.375l-4.7,7.286a7.52,7.52,0,0,1-8.651,2.751,65.584,65.584,0,0,1-18.391-9.477,5.858,5.858,0,0,1-1.6-8l4.7-7.286a43.129,43.129,0,0,1-9.109-13.961h-9.453c-3.437,0-6.417-2.191-6.99-5.248a51.145,51.145,0,0,1,0-18.9,6.929,6.929,0,0,1,6.99-5.3h9.453a43.129,43.129,0,0,1,9.109-13.961l-4.7-7.286a5.805,5.805,0,0,1,1.6-8A66.373,66.373,0,0,1,280.039.514a7.52,7.52,0,0,1,8.651,2.751l4.7,7.286a57.148,57.148,0,0,1,18.162,0l4.7-7.286A7.52,7.52,0,0,1,324.9.514a65.583,65.583,0,0,1,18.391,9.477,5.858,5.858,0,0,1,1.6,8l-4.7,7.286A43.129,43.129,0,0,1,349.3,39.238h9.453c3.438,0,6.417,2.191,6.99,5.248a51.145,51.145,0,0,1,0,18.9,6.929,6.929,0,0,1-6.99,5.3H349.3A43.129,43.129,0,0,1,340.2,82.65l4.7,7.286a5.805,5.805,0,0,1-1.6,8,66.372,66.372,0,0,1-18.391,9.477,7.52,7.52,0,0,1-8.651-2.751l-4.7-7.286A57.148,57.148,0,0,1,293.388,97.375Zm-6.016-29.96c22.057,15.082,47.209-7.286,30.25-26.9C295.565,25.379,270.414,47.8,287.372,67.415Zm-66.058,78.417,19.307,8.56c5.787,2.955,8.307,9.222,6.016,14.827-5.1,12.331-15.125,23.642-24.406,33.527-4.24,4.535-11.573,5.656-17.359,2.7l-16.672-8.56a101.978,101.978,0,0,1-31.453,16.152v17.12c0,5.911-4.755,11.006-11.286,12.025a144.651,144.651,0,0,1-43.485,0c-6.589-1.019-11.458-6.063-11.458-12.025v-17.12a103.1,103.1,0,0,1-31.453-16.152L42.392,205.4c-5.729,2.955-13.12,1.834-17.359-2.7C15.751,192.81,5.954,181.5.855,169.219c-2.292-5.554.229-11.821,6.016-14.827l19.078-8.56a78.678,78.678,0,0,1,0-32.3L6.871,104.916C1.085,101.961-1.494,95.694.855,90.14c5.1-12.331,14.9-23.642,24.177-33.527,4.24-4.535,11.573-5.656,17.359-2.7l16.672,8.56A101.978,101.978,0,0,1,90.517,46.32V29.149c0-5.86,4.7-10.955,11.229-11.974a146.7,146.7,0,0,1,43.542-.051c6.589,1.019,11.458,6.063,11.458,12.025v17.12A103.1,103.1,0,0,1,188.2,62.421l16.672-8.56c5.729-2.955,13.12-1.834,17.359,2.7,9.281,9.885,19.021,21.2,24.12,33.527,2.292,5.554.057,11.821-5.729,14.827l-19.307,8.56A78.924,78.924,0,0,1,221.315,145.831Zm-67.375,10.751c33.917-39.234-16.443-84.021-60.558-53.857C59.465,141.959,109.825,186.747,153.939,156.582Zm139.449,93.091-4.7,7.286a7.52,7.52,0,0,1-8.651,2.752,65.585,65.585,0,0,1-18.391-9.477,5.858,5.858,0,0,1-1.6-8l4.7-7.286a43.129,43.129,0,0,1-9.109-13.961h-9.453c-3.437,0-6.417-2.191-6.99-5.248a51.145,51.145,0,0,1,0-18.9,6.929,6.929,0,0,1,6.99-5.3h9.453a43.129,43.129,0,0,1,9.109-13.961l-4.7-7.286a5.805,5.805,0,0,1,1.6-8,66.373,66.373,0,0,1,18.391-9.477,7.52,7.52,0,0,1,8.651,2.751l4.7,7.286a57.147,57.147,0,0,1,18.162,0l4.7-7.286a7.52,7.52,0,0,1,8.651-2.751,65.583,65.583,0,0,1,18.391,9.477,5.858,5.858,0,0,1,1.6,8l-4.7,7.286a43.129,43.129,0,0,1,9.109,13.961h9.453c3.438,0,6.417,2.191,6.99,5.248a51.145,51.145,0,0,1,0,18.9,6.929,6.929,0,0,1-6.99,5.3H349.3a43.129,43.129,0,0,1-9.109,13.961l4.7,7.286a5.805,5.805,0,0,1-1.6,8,66.373,66.373,0,0,1-18.391,9.477,7.52,7.52,0,0,1-8.651-2.752l-4.7-7.286A57.147,57.147,0,0,1,293.388,249.673Zm-6.016-30.011c22.057,15.082,47.209-7.286,30.25-26.9-22.057-15.082-47.209,7.286-30.25,26.9Z" transform="translate(0.009 -0.112)" fill="#1b1f26"/>
</svg>
