<svg xmlns="http://www.w3.org/2000/svg" width="340" height="260" viewBox="0 0 340 260">
  <path id="home-solid" d="M165.477,99.5,56.656,187.638v95.125A9.366,9.366,0,0,0,66.1,292.05l66.141-.168a9.365,9.365,0,0,0,9.4-9.287V227.043a9.366,9.366,0,0,1,9.444-9.287h37.775a9.366,9.366,0,0,1,9.444,9.287v55.512a9.209,9.209,0,0,0,2.756,6.586,9.525,9.525,0,0,0,6.688,2.73l66.118.18a9.366,9.366,0,0,0,9.444-9.287V187.574L174.508,99.5a7.29,7.29,0,0,0-9.031,0ZM337.37,159.406l-49.343-40V39.015a7.025,7.025,0,0,0-7.083-6.965H247.891a7.025,7.025,0,0,0-7.083,6.965V81.16L187.965,38.406a28.7,28.7,0,0,0-36,0l-149.405,121a6.886,6.886,0,0,0-.944,9.809l15.051,17.993a7.165,7.165,0,0,0,9.981.946L165.477,75.7a7.29,7.29,0,0,1,9.031,0l138.84,112.451a7.165,7.165,0,0,0,9.975-.929l15.051-17.993a6.887,6.887,0,0,0-1-9.827Z" transform="translate(0.015 -32.05)" fill="#1b1f26"/>
</svg>
