<svg xmlns="http://www.w3.org/2000/svg" xmlns:xlink="http://www.w3.org/1999/xlink" width="310.186" height="284.338" viewBox="0 0 310.186 284.338">
  <defs>
    <clipPath id="clip-path">
      <rect id="Rectangle_57" data-name="Rectangle 57" width="310.186" height="284.338" transform="translate(-582 1181)" fill="#fff" stroke="#707070" stroke-width="1"/>
    </clipPath>
  </defs>
  <g id="Mask_Group_3" data-name="Mask Group 3" transform="translate(582 -1181)" clip-path="url(#clip-path)">
    <path id="handshake-solid" d="M210.684,28.364H169.052a15.5,15.5,0,0,0-10.469,4.071L110.94,76.055c-.048.048-.1.145-.145.194a19.279,19.279,0,0,0-1.018,27.141c6.155,6.737,19.1,8.53,27.19,1.309.048-.048.145-.048.194-.1l38.725-35.478a7.753,7.753,0,1,1,10.469,11.438L173.7,92.146l70.567,57.288a34.916,34.916,0,0,1,3.829,3.732V59.382L221.638,32.919a15.4,15.4,0,0,0-10.953-4.556Zm52.974,31.116V168a15.493,15.493,0,0,0,15.509,15.509h31.019V59.479ZM286.922,168a7.755,7.755,0,1,1,7.755-7.755A7.777,7.777,0,0,1,286.922,168ZM0,183.457H31.019a15.493,15.493,0,0,0,15.509-15.509V59.479H0Zm23.264-30.97a7.755,7.755,0,1,1-7.755,7.755A7.777,7.777,0,0,1,23.264,152.487ZM234.53,161.5,162.169,102.76l-14.54,13.328a34.886,34.886,0,0,1-47.158-51.423l39.646-36.3H99.5a15.482,15.482,0,0,0-10.953,4.556L62.037,59.382V167.9h8.869l43.862,39.694a31.012,31.012,0,0,0,43.62-4.507l.1-.1,8.676,7.512a18.012,18.012,0,0,0,25.348-2.617l15.219-18.708,2.617,2.133a15.485,15.485,0,0,0,21.81-2.278l4.6-5.671A15.537,15.537,0,0,0,234.53,161.5Z" transform="translate(-582 1201.716)"/>
  </g>
</svg>
