<svg xmlns="http://www.w3.org/2000/svg" width="60" height="60" viewBox="0 0 60 60">
  <path id="path" d="M10.7,984.2A28.519,28.519,0,0,1,32,975.5a30.2,30.2,0,0,1,21.3,8.7,28.519,28.519,0,0,1,8.7,21.3,29.693,29.693,0,0,1-8.7,21.3,28.52,28.52,0,0,1-21.3,8.7,29.693,29.693,0,0,1-21.3-8.7A28.519,28.519,0,0,1,2,1005.5,29.2,29.2,0,0,1,10.7,984.2Zm4.5,38.1a23.19,23.19,0,0,0,16.8,7.2,22.237,22.237,0,0,0,16.8-7.2,23.188,23.188,0,0,0,7.2-16.8,22.7,22.7,0,0,0-7.2-16.8A23.19,23.19,0,0,0,32,981.5a22.237,22.237,0,0,0-16.8,7.2,23.2,23.2,0,0,0,0,33.6Zm26.1-3.6a17.134,17.134,0,0,1-9.3,3,14.415,14.415,0,0,1-9.3-3,16.367,16.367,0,0,1-6-7.5H47.3A14.976,14.976,0,0,1,41.3,1018.7ZM24.5,1001a4.1,4.1,0,0,1-3.3,1.2,4.511,4.511,0,0,1-3.3-1.2,4.506,4.506,0,0,1,3.3-7.8,4.511,4.511,0,0,1,3.3,1.2,5.137,5.137,0,0,1,0,6.6Zm21.3,0a4.1,4.1,0,0,1-3.3,1.2,4.511,4.511,0,0,1-3.3-1.2,4.506,4.506,0,0,1,3.3-7.8,4.511,4.511,0,0,1,3.3,1.2,5.137,5.137,0,0,1,0,6.6Z" transform="translate(-2 -975.5)" fill="#08f0b9"/>
</svg>
