<svg xmlns="http://www.w3.org/2000/svg" xmlns:xlink="http://www.w3.org/1999/xlink" width="50" height="50" viewBox="0 0 50 50">
  <defs>
    <clipPath id="clip-path">
      <rect id="Rectangle_89" data-name="Rectangle 89" width="50" height="50" transform="translate(71 606)" fill="#fff"/>
    </clipPath>
  </defs>
  <g id="Mask_Group_8" data-name="Mask Group 8" transform="translate(-71 -606)" clip-path="url(#clip-path)">
    <g id="pedido" transform="translate(71 613.43)">
      <path id="Path_40" data-name="Path 40" d="M18.167.467H42.951V26.03H18.167Zm0,0" fill="#52b8d9"/>
      <path id="Path_41" data-name="Path 41" d="M42.951,26.459H18.167a.429.429,0,0,1-.429-.429V.467a.429.429,0,0,1,.429-.429H42.951a.428.428,0,0,1,.429.429V26.03A.428.428,0,0,1,42.951,26.459ZM18.6,25.6H42.522V.9H18.6Zm0,0" fill="#63312d"/>
      <path id="Path_42" data-name="Path 42" d="M13.167.467H37.951V26.03H13.167Zm0,0" fill="#82d9ff"/>
      <path id="Path_43" data-name="Path 43" d="M14.881,2.181H37.951V.467H13.167V26.031h1.714Zm0,0" fill="#caf4ff"/>
      <path id="Path_44" data-name="Path 44" d="M37.95,26.459H13.167a.429.429,0,0,1-.429-.429V.467a.429.429,0,0,1,.429-.429H37.951a.428.428,0,0,1,.429.429V26.03a.429.429,0,0,1-.429.429ZM13.6,25.6H37.522V.9H13.6Zm0,0" fill="#63312d"/>
      <path id="Path_45" data-name="Path 45" d="M28.783,8.659l-1.077.831-1.077-.831-1.076.831-1.072-.831-1.074.831-1.073-.831V.467h6.449Zm0,0" fill="#f8f3f3"/>
      <path id="Path_46" data-name="Path 46" d="M25.554,9.918a.433.433,0,0,1-.262-.089l-.81-.627-.812.627a.43.43,0,0,1-.525,0L22.072,9a.429.429,0,0,1-.166-.339V.466a.429.429,0,0,1,.429-.429h6.448a.429.429,0,0,1,.429.429V8.659A.431.431,0,0,1,29.045,9l-1.077.831a.428.428,0,0,1-.524,0L26.629,9.2l-.812.627a.429.429,0,0,1-.262.09Zm1.075-1.687a.43.43,0,0,1,.262.089l.815.629.648-.5V.9H22.763V8.449l.644.5.812-.628a.431.431,0,0,1,.525,0l.811.628.813-.628a.43.43,0,0,1,.261-.089Zm0,0" fill="#63312d"/>
      <path id="Path_47" data-name="Path 47" d="M49.107,19.73a2.573,2.573,0,0,0-3.474-.708L34.426,26.029H30.907a2.989,2.989,0,0,0,0-5.977H21.04A8.648,8.648,0,0,0,14.1,16.537a8.464,8.464,0,0,0-6.844,3.33V32.751H36.339l12.238-9.515a2.574,2.574,0,0,0,.529-3.506Zm0,0" fill="#f9dd9d"/>
      <path id="Path_48" data-name="Path 48" d="M36.339,33.179H7.26a.429.429,0,0,1-.429-.429V19.868A.423.423,0,0,1,6.9,19.63a8.828,8.828,0,0,1,7.2-3.52,9.031,9.031,0,0,1,7.157,3.515h9.647A3.415,3.415,0,0,1,33.168,25.6H34.3l11.1-6.942a3,3,0,0,1,3.433,4.917L36.6,33.088a.423.423,0,0,1-.263.091Zm-28.65-.857h28.5L48.315,22.9a2.145,2.145,0,0,0-2.454-3.512L34.655,26.394a.426.426,0,0,1-.227.065H30.908a.429.429,0,0,1,0-.857,2.56,2.56,0,1,0,0-5.119H21.04a.43.43,0,0,1-.357-.193A8.293,8.293,0,0,0,14.1,16.968a8.156,8.156,0,0,0-6.415,3.041V32.322Zm0,0" fill="#63312d"/>
      <path id="Path_49" data-name="Path 49" d="M21.435,25.6h9.474v.857H21.435Zm0,0" fill="#63312d"/>
      <path id="Path_50" data-name="Path 50" d="M7.26,34.674H.429V16.538H7.26Zm0,0" fill="#f7a085"/>
      <path id="Path_51" data-name="Path 51" d="M7.26,35.1H.429A.429.429,0,0,1,0,34.675V16.538a.429.429,0,0,1,.429-.429H7.26a.429.429,0,0,1,.429.429V34.675A.428.428,0,0,1,7.26,35.1Zm-6.4-.857H6.831V16.967H.857Zm0,0" fill="#63312d"/>
    </g>
  </g>
</svg>
